<svg xmlns="http://www.w3.org/2000/svg" version="1.1" xmlns:xlink="http://www.w3.org/1999/xlink" xmlns:svgjs="http://svgjs.dev/svgjs" width="1500" height="670" viewBox="0 0 1500 670"><g transform="matrix(1,0,0,1,-0.9090909090909918,-0.023555633972023315)"><svg viewBox="0 0 396 177" data-background-color="#d6cb1a" preserveAspectRatio="xMidYMid meet" height="670" width="1500" xmlns="http://www.w3.org/2000/svg" xmlns:xlink="http://www.w3.org/1999/xlink"><g id="tight-bounds" transform="matrix(1,0,0,1,0.2400000000000091,0.006222906288130048)"><svg viewBox="0 0 395.52 176.98755418742374" height="176.98755418742374" width="395.52"><g><svg viewBox="0 0 397.4975999999999 177.87249195836083" height="176.98755418742374" width="395.52"><g><rect width="397.4975999999999" height="3.756183377068135" x="0" y="87.05815429064634" fill="#181300" opacity="1" stroke-width="0" stroke="transparent" fill-opacity="1" class="rect-yte-0" data-fill-palette-color="primary" rx="1%" id="yte-0" data-palette-color="#181300"></rect></g><g transform="matrix(1,0,0,1,0.9887999999999693,100.64727844537975)"><svg viewBox="0 0 395.52 77.22521351298107" height="77.22521351298107" width="395.52"><g id="textblocktransform"><svg viewBox="0 0 395.52 77.22521351298107" height="77.22521351298107" width="395.52" id="textblock"><g><svg viewBox="0 0 395.52 41.65159007127058" height="41.65159007127058" width="395.52"><g transform="matrix(1,0,0,1,0,0)"><svg width="395.52" viewBox="3.98 -41.19 397.33 41.849999999999994" height="41.65159007127058" data-palette-color="#181300"><path d="M29.22-4.47L29.22 0 3.98 0 3.98-35.16 13.67-35.16 13.67-4.47 29.22-4.47ZM41.92-35.01L41.92-35.01Q41.92-34.08 41.56-33.25 41.21-32.42 40.6-31.81 39.99-31.2 39.16-30.85 38.33-30.49 37.4-30.49L37.4-30.49Q36.47-30.49 35.65-30.85 34.84-31.2 34.23-31.81 33.62-32.42 33.26-33.25 32.91-34.08 32.91-35.01L32.91-35.01Q32.91-35.94 33.26-36.76 33.62-37.57 34.23-38.18 34.84-38.79 35.65-39.15 36.47-39.5 37.4-39.5L37.4-39.5Q38.33-39.5 39.16-39.15 39.99-38.79 40.6-38.18 41.21-37.57 41.56-36.76 41.92-35.94 41.92-35.01ZM41.55-28.17L41.55 0 33.27 0 33.27-28.17 41.55-28.17ZM74.07-28.2L62.96 0 55.54 0 45.28-28.2 53.54-28.2 61.05-5.74 68.35-28.2 74.07-28.2ZM83.78-13.38L83.78-13.38Q85.3-13.04 86.81-12.84 88.32-12.65 89.86-12.65L89.86-12.65Q91.47-12.65 92.85-12.95 94.23-13.26 95.24-13.98 96.26-14.7 96.84-15.89 97.43-17.09 97.43-18.87L97.43-18.87Q97.43-20.31 97.04-21.51 96.65-22.71 95.88-23.56 95.11-24.41 93.99-24.89 92.86-25.37 91.37-25.37L91.37-25.37Q89.98-25.37 88.87-24.85 87.76-24.34 86.92-23.47 86.08-22.61 85.48-21.46 84.88-20.31 84.49-19.07 84.1-17.82 83.93-16.55 83.76-15.28 83.76-14.16L83.76-14.16Q83.76-13.96 83.76-13.77 83.76-13.57 83.78-13.38ZM104.12-18.95L104.12-18.95Q104.12-17.21 103.56-15.86 103-14.5 102.03-13.48 101.07-12.45 99.8-11.74 98.53-11.04 97.09-10.58 95.65-10.13 94.12-9.94 92.6-9.74 91.15-9.74L91.15-9.74Q89.32-9.74 87.54-10 85.76-10.25 84.03-10.82L84.03-10.82Q84.29-9.2 84.88-7.75 85.47-6.3 86.44-5.21 87.42-4.13 88.85-3.49 90.28-2.86 92.23-2.86L92.23-2.86Q93.52-2.86 94.69-3.25 95.87-3.64 96.84-4.35 97.82-5.05 98.56-6.03 99.31-7.01 99.77-8.2L99.77-8.2 103.34-6.88Q102.53-4.96 101.13-3.55 99.72-2.15 97.95-1.23 96.18-0.32 94.19 0.12 92.2 0.56 90.25 0.56L90.25 0.56Q87.03 0.56 84.29-0.52 81.56-1.61 79.58-3.56 77.6-5.52 76.48-8.23 75.36-10.94 75.36-14.16L75.36-14.16Q75.36-17.38 76.48-20.09 77.6-22.8 79.58-24.76 81.56-26.71 84.29-27.8 87.03-28.88 90.25-28.88L90.25-28.88Q91.81-28.88 93.45-28.66 95.09-28.44 96.62-27.97 98.16-27.49 99.53-26.73 100.9-25.98 101.91-24.87 102.92-23.75 103.52-22.29 104.12-20.83 104.12-18.95ZM130.97-22.46L125.33 0 116.47 0 107.24-35.16 117.13-35.16 122.96-10.21 128.14-35.16 137.03-35.16 142.69-9.57 149.06-35.16 155.04-35.16 144.81 0 135.93 0 130.97-22.46ZM167.79-35.01L167.79-35.01Q167.79-34.08 167.43-33.25 167.08-32.42 166.47-31.81 165.86-31.2 165.03-30.85 164.2-30.49 163.27-30.49L163.27-30.49Q162.34-30.49 161.52-30.85 160.71-31.2 160.09-31.81 159.48-32.42 159.13-33.25 158.78-34.08 158.78-35.01L158.78-35.01Q158.78-35.94 159.13-36.76 159.48-37.57 160.09-38.18 160.71-38.79 161.52-39.15 162.34-39.5 163.27-39.5L163.27-39.5Q164.2-39.5 165.03-39.15 165.86-38.79 166.47-38.18 167.08-37.57 167.43-36.76 167.79-35.94 167.79-35.01ZM167.42-28.17L167.42 0 159.14 0 159.14-28.17 167.42-28.17ZM200.35-21.22L200.35-21.22 196.79-19.8Q195.93-22.49 193.93-23.93 191.93-25.37 189.12-25.37L189.12-25.37Q187.61-25.37 186.42-24.89 185.24-24.41 184.35-23.58 183.46-22.75 182.83-21.66 182.21-20.56 181.82-19.31 181.43-18.07 181.26-16.74 181.09-15.41 181.09-14.16L181.09-14.16Q181.09-12.82 181.24-11.45 181.38-10.08 181.74-8.83 182.09-7.57 182.68-6.48 183.26-5.4 184.15-4.59 185.04-3.78 186.28-3.32 187.51-2.86 189.12-2.86L189.12-2.86Q190.41-2.86 191.59-3.25 192.76-3.64 193.74-4.35 194.71-5.05 195.47-6.03 196.23-7.01 196.66-8.2L196.66-8.2 200.25-6.88Q199.45-4.96 198.12-3.55 196.79-2.15 195.1-1.23 193.42-0.32 191.49 0.12 189.56 0.56 187.58 0.56L187.58 0.56Q184.38 0.56 181.65-0.52 178.92-1.61 176.93-3.58 174.94-5.54 173.81-8.24 172.69-10.94 172.69-14.16L172.69-14.16Q172.69-17.41 173.8-20.12 174.91-22.83 176.89-24.78 178.87-26.73 181.6-27.81 184.34-28.88 187.58-28.88L187.58-28.88Q189.63-28.88 191.59-28.43 193.54-27.98 195.21-27.04 196.88-26.1 198.21-24.66 199.55-23.22 200.35-21.22ZM213.48-9.47L213.48 0 205.23 0 205.23-38.57 213.48-38.57 213.48-13.26Q215.51-14.72 217.48-16.48 219.44-18.24 221.22-20.18 223-22.12 224.53-24.15 226.06-26.17 227.2-28.2L227.2-28.2 232.82-28.2Q231.11-25.32 228.77-22.45 226.42-19.58 223.66-16.97L223.66-16.97 232.92 0 223.81 0 217.24-11.77Q215.41-10.52 213.48-9.47L213.48-9.47ZM242.83-13.38L242.83-13.38Q244.34-13.04 245.85-12.84 247.37-12.65 248.91-12.65L248.91-12.65Q250.52-12.65 251.9-12.95 253.28-13.26 254.29-13.98 255.3-14.7 255.89-15.89 256.47-17.09 256.47-18.87L256.47-18.87Q256.47-20.31 256.08-21.51 255.69-22.71 254.92-23.56 254.15-24.41 253.03-24.89 251.91-25.37 250.42-25.37L250.42-25.37Q249.03-25.37 247.92-24.85 246.81-24.34 245.96-23.47 245.12-22.61 244.52-21.46 243.93-20.31 243.53-19.07 243.14-17.82 242.97-16.55 242.8-15.28 242.8-14.16L242.8-14.16Q242.8-13.96 242.8-13.77 242.8-13.57 242.83-13.38ZM263.16-18.95L263.16-18.95Q263.16-17.21 262.6-15.86 262.04-14.5 261.08-13.48 260.11-12.45 258.84-11.74 257.57-11.04 256.13-10.58 254.69-10.13 253.17-9.94 251.64-9.74 250.2-9.74L250.2-9.74Q248.37-9.74 246.59-10 244.8-10.25 243.07-10.82L243.07-10.82Q243.34-9.2 243.93-7.75 244.51-6.3 245.49-5.21 246.46-4.13 247.89-3.49 249.32-2.86 251.27-2.86L251.27-2.86Q252.57-2.86 253.74-3.25 254.91-3.64 255.89-4.35 256.86-5.05 257.61-6.03 258.35-7.01 258.82-8.2L258.82-8.2 262.38-6.88Q261.58-4.96 260.17-3.55 258.77-2.15 257-1.23 255.23-0.32 253.24 0.12 251.25 0.56 249.3 0.56L249.3 0.56Q246.07 0.56 243.34-0.52 240.61-1.61 238.63-3.56 236.65-5.52 235.53-8.23 234.4-10.94 234.4-14.16L234.4-14.16Q234.4-17.38 235.53-20.09 236.65-22.8 238.63-24.76 240.61-26.71 243.34-27.8 246.07-28.88 249.3-28.88L249.3-28.88Q250.86-28.88 252.49-28.66 254.13-28.44 255.67-27.97 257.21-27.49 258.57-26.73 259.94-25.98 260.95-24.87 261.97-23.75 262.57-22.29 263.16-20.83 263.16-18.95ZM278.93-24.93L278.93 0 270.66 0 270.66-24.93 265.53-24.93 265.53-28.2 270.66-28.2 270.66-38.57 278.93-38.57 278.93-28.2 287.48-28.2 287.48-24.93 278.93-24.93ZM301.54-13.13L301.54 0 291.85 0 291.85-35.16 310.84-35.16Q313.31-35.16 315.56-34.5 317.82-33.84 319.56-32.51 321.29-31.18 322.33-29.16 323.36-27.15 323.36-24.44L323.36-24.44Q323.36-22.73 322.88-21.23 322.39-19.73 321.52-18.48 320.65-17.24 319.48-16.24 318.31-15.23 316.92-14.55 315.53-13.87 313.98-13.5 312.43-13.13 310.84-13.13L310.84-13.13 301.54-13.13ZM313.55-24.44L313.55-24.44Q313.55-27.83 311.83-29.77 310.11-31.71 306.64-31.71L306.64-31.71 301.54-31.71 301.54-16.46 306.64-16.46Q308.5-16.46 309.8-17.05 311.11-17.65 311.94-18.73 312.77-19.8 313.16-21.25 313.55-22.71 313.55-24.44ZM335.89-32.62L335.89 0 327.63 0 327.63-41.19 330.81-41.19 335.89-32.62ZM341.33-12.06L341.33-12.06Q341.33-13.99 341.66-16.06 341.99-18.14 342.61-20.21 343.23-22.29 344.11-24.32 344.99-26.34 346.09-28.2L346.09-28.2 352.12-28.2Q351.51-26.37 351.03-24.38 350.56-22.39 350.23-20.4 349.9-18.41 349.71-16.5 349.53-14.6 349.53-12.96L349.53-12.96Q349.53-12.01 349.62-10.93 349.7-9.84 349.92-8.75 350.14-7.67 350.54-6.67 350.95-5.66 351.58-4.9 352.22-4.13 353.13-3.67 354.05-3.22 355.29-3.22L355.29-3.22Q356.51-3.22 357.48-3.77 358.44-4.32 359.17-5.21 359.91-6.1 360.42-7.25 360.93-8.4 361.26-9.61 361.59-10.82 361.75-11.98 361.91-13.13 361.91-14.06L361.91-14.06 361.91-28.2 370.16-28.2 370.16 0 366.99 0 363.2-6.57Q362.49-4.93 361.48-3.6 360.47-2.27 359.17-1.32 357.88-0.37 356.31 0.15 354.73 0.66 352.9 0.66L352.9 0.66Q349.97 0.66 347.8-0.29 345.62-1.25 344.18-2.93 342.74-4.61 342.04-6.95 341.33-9.28 341.33-12.06ZM401.31-9.01L401.31-9.01Q401.31-7.15 400.77-5.71 400.24-4.27 399.31-3.21 398.38-2.15 397.11-1.43 395.84-0.71 394.39-0.27 392.94 0.17 391.35 0.37 389.76 0.56 388.2 0.56L388.2 0.56Q386.1 0.56 384.49 0.29 382.88 0.02 381.41-0.57 379.95-1.17 378.5-2.12 377.04-3.08 375.26-4.44L375.26-4.44 380.07-8.37Q380.73-7.13 381.82-6.12 382.9-5.1 384.07-4.37 385.25-3.64 386.34-3.25 387.44-2.86 388.13-2.86L388.13-2.86Q388.69-2.86 389.4-2.89 390.1-2.93 390.84-3.04 391.57-3.15 392.28-3.37 392.99-3.59 393.53-3.97 394.08-4.35 394.41-4.92 394.74-5.49 394.74-6.3L394.74-6.3Q394.74-7.13 394.32-7.75 393.89-8.37 393.2-8.84 392.52-9.3 391.64-9.62 390.76-9.94 389.87-10.18 388.98-10.42 388.15-10.61 387.32-10.79 386.71-10.96L386.71-10.96Q385.59-11.28 384.34-11.61 383.1-11.94 381.88-12.37 380.66-12.79 379.55-13.38 378.43-13.96 377.59-14.78 376.75-15.6 376.25-16.71 375.75-17.82 375.75-19.31L375.75-19.31Q375.75-22.05 376.84-23.89 377.92-25.73 379.7-26.84 381.49-27.95 383.76-28.42 386.03-28.88 388.37-28.88L388.37-28.88Q389.98-28.88 391.76-28.55 393.55-28.22 395.23-27.58 396.92-26.93 398.38-26 399.85-25.07 400.82-23.88L400.82-23.88 396.01-19.92Q395.48-21.39 394.61-22.44 393.74-23.49 392.73-24.16 391.72-24.83 390.65-25.15 389.59-25.46 388.69-25.46L388.69-25.46Q387.81-25.46 386.71-25.39 385.61-25.32 384.65-24.98 383.68-24.63 383.01-23.94 382.34-23.24 382.34-22.02L382.34-22.02Q382.34-21.14 382.74-20.52 383.15-19.9 383.81-19.45 384.46-18.99 385.31-18.69 386.15-18.38 387.03-18.15 387.91-17.92 388.74-17.75 389.57-17.58 390.23-17.38L390.23-17.38Q391.35-17.07 392.61-16.74 393.86-16.41 395.08-15.98 396.31-15.55 397.44-14.98 398.58-14.4 399.43-13.57 400.28-12.74 400.8-11.63 401.31-10.52 401.31-9.01Z" opacity="1" transform="matrix(1,0,0,1,0,0)" fill="#181300" class="wordmark-text-0" data-fill-palette-color="primary" id="text-0"></path></svg></g></svg></g><g transform="matrix(1,0,0,1,0,51.48453084893586)"><svg viewBox="0 0 395.52 25.74068266404522" height="25.74068266404522" width="395.52"><g transform="matrix(1,0,0,1,0,0)"><svg width="395.52" viewBox="1.9 -31.69 491.43 31.98" height="25.74068266404522" data-palette-color="#181300"><path d="M16.75-15.41L16.75-15.41 13.67-15.41Q13.77-16.26 13.76-17.36 13.75-18.46 13.75-19.07L13.75-19.07Q13.72-20.36 12.73-20.85 11.74-21.34 9.5-21.34L9.5-21.34Q7.2-21.34 6.23-20.85 5.25-20.36 5.22-19.07L5.22-19.07Q5.05-15.23 5.05-11.93 5.05-8.62 5.22-4.81L5.22-4.81Q5.25-3.47 6.23-2.95 7.2-2.44 9.47-2.44L9.47-2.44Q11.72-2.44 12.72-2.95 13.72-3.47 13.75-4.81L13.75-4.81Q13.75-5.47 13.76-6.41 13.77-7.35 13.67-8.47L13.67-8.47 16.75-8.47Q16.87-7.76 16.86-6.82 16.85-5.88 16.8-5.13L16.8-5.13Q16.65-2.25 15-0.98 13.35 0.29 9.47 0.29L9.47 0.29Q5.57 0.29 3.87-0.98 2.17-2.25 2.05-5.13L2.05-5.13Q1.95-6.93 1.92-9.38 1.88-11.82 1.92-14.28 1.95-16.75 2.05-18.58L2.05-18.58Q2.17-21.53 3.89-22.8 5.62-24.07 9.5-24.07L9.5-24.07Q13.35-24.07 15.05-22.83 16.75-21.58 16.8-18.73L16.8-18.73Q16.85-17.99 16.86-17.05 16.87-16.11 16.75-15.41ZM87.82-19.19L87.82 0 84.67 0 84.67-23.75 87.82-23.75 87.82-21.53 88.51-21.53Q89.14-22.75 90.19-23.41 91.24-24.07 92.8-24.07L92.8-24.07Q95.15-24.07 96.28-22.84 97.42-21.61 97.42-18.58L97.42-18.58Q97.42-17.92 97.37-17.02 97.32-16.11 97.22-15.41L97.22-15.41 94.2-15.41Q94.24-15.65 94.26-16.26 94.27-16.87 94.28-17.48 94.29-18.09 94.29-18.31L94.29-18.31Q94.29-20.12 93.68-20.76 93.07-21.41 91.73-21.41L91.73-21.41Q88.87-21.41 87.82-19.19L87.82-19.19ZM168.76-31.69L168.76-28.17 165.61-28.17 165.61-31.69 168.76-31.69ZM168.76-23.75L168.76 0 165.59 0 165.59-23.75 168.76-23.75ZM252.22-15.41L252.22-15.41 249.14-15.41Q249.24-16.26 249.23-17.36 249.21-18.46 249.21-19.07L249.21-19.07Q249.19-20.36 248.2-20.85 247.21-21.34 244.97-21.34L244.97-21.34Q242.67-21.34 241.69-20.85 240.72-20.36 240.69-19.07L240.69-19.07Q240.52-15.23 240.52-11.93 240.52-8.62 240.69-4.81L240.69-4.81Q240.72-3.47 241.69-2.95 242.67-2.44 244.94-2.44L244.94-2.44Q247.19-2.44 248.19-2.95 249.19-3.47 249.21-4.81L249.21-4.81Q249.21-5.47 249.23-6.41 249.24-7.35 249.14-8.47L249.14-8.47 252.22-8.47Q252.34-7.76 252.33-6.82 252.31-5.88 252.27-5.13L252.27-5.13Q252.12-2.25 250.47-0.98 248.82 0.29 244.94 0.29L244.94 0.29Q241.04 0.29 239.34-0.98 237.64-2.25 237.52-5.13L237.52-5.13Q237.42-6.93 237.39-9.38 237.35-11.82 237.39-14.28 237.42-16.75 237.52-18.58L237.52-18.58Q237.64-21.53 239.36-22.8 241.08-24.07 244.97-24.07L244.97-24.07Q248.82-24.07 250.52-22.83 252.22-21.58 252.27-18.73L252.27-18.73Q252.31-17.99 252.33-17.05 252.34-16.11 252.22-15.41ZM323.12-7.89L323.12 0 320.07 0 320.07-31.69 323.07-31.69 323.07-23.88 322.8-13.53 323.63-13.53 326-18.14 329.67-23.75 332.99-23.75 326.93-14.18 334.4 0 331.11 0 325.08-10.5 323.12-7.89ZM408.02 0.29L408.02 0.29Q403.99 0.29 402.27-0.98 400.55-2.25 400.42-5.13L400.42-5.13Q400.33-6.93 400.29-9.38 400.25-11.82 400.29-14.28 400.33-16.75 400.42-18.58L400.42-18.58Q400.55-21.53 402.32-22.8 404.09-24.07 408.02-24.07L408.02-24.07Q411.73-24.07 413.39-22.83 415.05-21.58 415.22-18.73L415.22-18.73Q415.27-17.87 415.32-15.75 415.37-13.62 415.17-11.23L415.17-11.23 403.48-11.23Q403.48-9.69 403.5-8.11 403.52-6.52 403.6-4.81L403.6-4.81Q403.62-3.47 404.62-2.95 405.62-2.44 407.92-2.44L407.92-2.44Q410.19-2.44 411.12-2.95 412.04-3.47 412.14-4.81L412.14-4.81Q412.22-6.15 412.14-8.47L412.14-8.47 415.17-8.47Q415.29-7.76 415.28-6.82 415.27-5.88 415.22-5.13L415.22-5.13Q415.05-2.25 413.47-0.98 411.9 0.29 408.02 0.29ZM403.48-13.82L403.48-13.82 412.19-13.82Q412.24-15.48 412.24-16.99 412.24-18.51 412.14-19.07L412.14-19.07Q412.04-20.29 411.09-20.81 410.14-21.34 408.02-21.34L408.02-21.34Q405.65-21.34 404.64-20.81 403.62-20.29 403.6-19.07L403.6-19.07Q403.52-17.65 403.49-16.36 403.45-15.06 403.48-13.82ZM490.66 0.29L490.66 0.29Q486.86 0.29 485.53-0.98 484.2-2.25 484.2-5.13L484.2-5.13 484.2-21.02 481.85-21.02 481.85-23.75 484.27-23.75 484.27-30.49 487.37-30.49 487.37-23.75 492.74-23.75 492.74-21.02 487.34-21.02 487.34-4.79Q487.34-3.44 487.91-2.93 488.47-2.42 490.74-2.42L490.74-2.42Q491.67-2.42 492.17-2.45 492.67-2.49 493.33-2.51L493.33-2.51 493.33 0.1Q492.74 0.2 492.06 0.24 491.37 0.29 490.66 0.29Z" opacity="1" transform="matrix(1,0,0,1,0,0)" fill="#181300" class="slogan-text-1" data-fill-palette-color="secondary" id="text-1"></path></svg></g></svg></g></svg></g></svg></g><g transform="matrix(1,0,0,1,185.13613973943464,0)"><svg viewBox="0 0 27.225320521130666 77.22521351298107" height="77.22521351298107" width="27.225320521130666"><g><svg xmlns="http://www.w3.org/2000/svg" xmlns:xlink="http://www.w3.org/1999/xlink" version="1.1" x="0" y="0" viewBox="170.2 11.8 172.5 489.3" style="enable-background:new 0 0 512 512;" xml:space="preserve" height="77.22521351298107" width="27.225320521130666" class="icon-icon-0" data-fill-palette-color="accent" id="icon-0"><g fill="#80a383" data-fill-palette-color="accent"><g fill="#80a383" data-fill-palette-color="accent"><g fill="#80a383" data-fill-palette-color="accent"><path d="M203.7 416.9H175.3C172.5 416.9 170.3 414.7 170.3 411.9V59.2C170.3 56.4 172.5 54.2 175.3 54.2H203.7C206.5 54.2 208.7 56.4 208.7 59.2V411.9C208.7 414.7 206.4 416.9 203.7 416.9M180.2 406.9H198.6V64.2H180.2z" fill="#80a383" data-fill-palette-color="accent"></path></g><g fill="#80a383" data-fill-palette-color="accent"><path d="M189.4 501.1C187 501.1 184.9 499.3 184.5 496.9L170.3 412.7C170.1 411.2 170.5 409.8 171.4 408.6 172.3 407.5 173.7 406.8 175.2 406.8H203.6C205.1 406.8 206.5 407.4 207.4 408.6 208.3 409.7 208.8 411.2 208.5 412.7L194.4 497C194 499.4 191.9 501.1 189.4 501.1M181.1 416.9L189.4 466.1 197.7 416.9z" fill="#80a383" data-fill-palette-color="accent"></path></g><g fill="#80a383" data-fill-palette-color="accent"><path d="M270.7 416.9H242.2C239.4 416.9 237.2 414.7 237.2 411.9V59.2C237.2 56.4 239.4 54.2 242.2 54.2H270.7C273.5 54.2 275.7 56.4 275.7 59.2V411.9C275.7 414.7 273.5 416.9 270.7 416.9M247.2 406.9H265.7V64.2H247.2z" fill="#80a383" data-fill-palette-color="accent"></path></g><g fill="#80a383" data-fill-palette-color="accent"><path d="M256.5 501.1C254.1 501.1 252 499.3 251.6 496.9L237.4 412.7C237.2 411.2 237.6 409.8 238.5 408.6 239.4 407.5 240.8 406.8 242.3 406.8H270.8C272.3 406.8 273.7 407.4 274.6 408.6 275.6 409.7 276 411.2 275.7 412.7L261.4 497C261 499.4 258.9 501.1 256.5 501.1M248.2 416.9L256.5 466.1 264.8 416.9z" fill="#80a383" data-fill-palette-color="accent"></path></g><g fill="#80a383" data-fill-palette-color="accent"><path d="M337.7 416.9H309.3C306.5 416.9 304.3 414.7 304.3 411.9V59.2C304.3 56.4 306.5 54.2 309.3 54.2H337.7C340.5 54.2 342.7 56.4 342.7 59.2V411.9C342.7 414.7 340.5 416.9 337.7 416.9M314.3 406.9H332.7V64.2H314.3z" fill="#80a383" data-fill-palette-color="accent"></path></g><g fill="#80a383" data-fill-palette-color="accent"><path d="M323.5 501.1C321.1 501.1 319 499.3 318.6 496.9L304.4 412.7C304.2 411.2 304.6 409.8 305.5 408.6 306.5 407.5 307.8 406.8 309.3 406.8H337.7C339.2 406.8 340.6 407.4 341.5 408.6 342.5 409.7 342.9 411.2 342.6 412.7L328.4 497C328 499.4 326 501.1 323.5 501.1M315.2 416.9L323.5 466.1 331.8 416.9z" fill="#80a383" data-fill-palette-color="accent"></path></g><g fill="#80a383" data-fill-palette-color="accent"><path d="M246.2 45.3H175.2C172.4 45.3 170.2 43.1 170.2 40.3V16.8C170.2 14 172.4 11.8 175.2 11.8H246.2C249 11.8 251.2 14 251.2 16.8V40.3C251.2 43.1 249 45.3 246.2 45.3M180.2 35.3H241.2V21.8H180.2z" fill="#80a383" data-fill-palette-color="accent"></path></g><g fill="#80a383" data-fill-palette-color="accent"><path d="M337.7 45.3H266.8C264 45.3 261.8 43.1 261.8 40.3V16.8C261.8 14 264 11.8 266.8 11.8H337.7C340.5 11.8 342.7 14 342.7 16.8V40.3C342.7 43.1 340.5 45.3 337.7 45.3M271.8 35.3H332.7V21.8H271.8z" fill="#80a383" data-fill-palette-color="accent"></path></g></g></g></svg></g></svg></g><g></g></svg></g><defs></defs></svg><rect width="395.52" height="176.98755418742374" fill="none" stroke="none" visibility="hidden"></rect></g></svg></g></svg>